<?xml version="1.0" encoding="UTF-8" standalone="no"?>
<!-- Uploaded to: SVG Repo, www.svgrepo.com, Generator: SVG Repo Mixer Tools -->

<svg
   width="50"
   height="50"
   viewBox="0 0 76 76"
   version="1.1"
   xmlns="http://www.w3.org/2000/svg">
	<path
   fill="currentColor"
   fill-opacity="1"
   stroke-width="0.375489"
   stroke-linejoin="round"
   d="m 2.7783547,44.637702 c -3.66589693,-3.665897 -3.66589693,-9.609509 0,-13.275405 L 19.58129,14.559925 c 2.072135,-2.071947 3.821349,-2.844139 7.576237,-2.844139 h 39.426321 c 5.184374,0 9.38722,4.202845 9.38722,9.387219 v 33.793989 c 0,5.184374 -4.202846,9.38722 -9.38722,9.38722 H 27.157527 c -3.754888,0 -5.504102,-0.77163 -7.576237,-2.843577 z m 55.4097523,2.655081 -9.292784,-9.292971 9.292784,-9.292784 -4.840801,-4.840988 -9.292784,9.29297 -9.292972,-9.29297 -4.840801,4.840988 9.292784,9.292784 -9.292784,9.292971 4.840801,4.840802 9.292972,-9.292972 9.292784,9.292972 z"
   id="path1" />
</svg>
