<?xml version="1.0" encoding="UTF-8" standalone="no"?>

<svg
   width="100px"
   height="100px"
   viewBox="0 0 24 24"
   version="1.1"
   fill="currentColor"
   xmlns="http://www.w3.org/2000/svg">
  <path
     fill-rule="evenodd"
     clip-rule="evenodd"
     d="m 24.010152,11.999999 c 0,6.632967 -5.377186,12.010153 -12.010153,12.010153 -6.6330262,0 -12.0101515,-5.377186 -12.0101515,-12.010153 0,-6.6330262 5.3771253,-12.0101515 12.0101515,-12.0101515 6.632967,0 12.010153,5.3771253 12.010153,12.0101515 z M 6.0009287,8.3969541 c 0,-0.6605584 0.5344518,-1.2010152 1.1950102,-1.2010152 h 9.6081221 c 0.660559,0 1.201014,0.5404568 1.201014,1.2010152 v 7.2060909 c 0,0.660558 -0.540455,1.201016 -1.201014,1.201016 H 7.1959389 c -0.6605584,0 -1.2010153,-0.540457 -1.2010153,-1.201015 z M 11.999999,12.600507 7.1959509,9.5979333 V 15.603045 H 16.80406 V 9.5979333 Z m 0,-1.201015 -4.8040481,-3.0025259 h 9.6081101 z"
     id="path1"
     style="stroke-width:1.20102" />
</svg>
