<?xml version="1.0" encoding="UTF-8" standalone="no"?>
<!-- Uploaded to: SVG Repo, www.svgrepo.com, Generator: SVG Repo Mixer Tools -->

<svg
   width="800px"
   height="800px"
   viewBox="0 0 24 24"
   fill="none"
   version="1.1"
   id="svg1"
   xmlns="http://www.w3.org/2000/svg">
  <defs
     id="defs1" />
  <path
     d="m 8.7337808,18.671975 c -0.2762363,0.264258 -0.4900241,0.441138 -0.7085013,0.570433 -1.0694692,0.632779 -2.3870958,0.632779 -3.4565534,0 C 4.1746214,19.009205 3.7957946,18.620965 3.0381297,17.844604 2.2804647,17.068125 1.9016264,16.679885 1.6741046,16.275941 c -0.6174557,-1.095997 -0.6174557,-2.446334 0,-3.542332 0.2275218,-0.403826 0.6063601,-0.792066 1.3640251,-1.568545 L 6.2970028,7.8253292 C 7.0546678,7.0488618 7.4334945,6.6606222 7.8275877,6.427454 8.8970568,5.7946754 10.214707,5.7946754 11.284165,6.4274422 c 0.394047,0.23318 0.772885,0.6214196 1.530561,1.397887 0.757677,0.7764674 1.136515,1.1646953 1.364072,1.5685684 0.617455,1.0959974 0.617455,2.4463344 0,3.5423324 -0.126165,0.223876 -0.298762,0.443028 -0.556736,0.72606 m -3.24409,-3.324597 c -0.257974,0.283032 -0.4305723,0.502185 -0.5567365,0.72606 -0.6174095,1.095998 -0.6174095,2.446335 0,3.542333 0.2275575,0.403944 0.6063955,0.792183 1.3640715,1.568545 0.757677,0.776479 1.136515,1.164718 1.530562,1.397922 1.069458,0.632779 2.387096,0.632779 3.456553,0 0.394163,-0.233204 0.773001,-0.621443 1.530678,-1.397922 l 3.258838,-3.339712 c 0.757677,-0.776479 1.136515,-1.164719 1.363956,-1.568545 0.617456,-1.095997 0.617456,-2.4463461 0,-3.5423437 C 22.098453,7.3201572 21.719615,6.9319176 20.961938,6.1554501 20.204262,5.3789827 19.825423,4.9907549 19.431376,4.757575 c -1.069573,-0.6327786 -2.387096,-0.6327786 -3.456553,0 -0.21857,0.1292715 -0.4323,0.3061874 -0.708594,0.5704926"
     
     stroke-width="2.33279"
     stroke-linecap="round"
     id="path1" />
</svg>
