<?xml version="1.0" encoding="UTF-8" standalone="no"?>
<!-- Uploaded to: SVG Repo, www.svgrepo.com, Generator: SVG Repo Mixer Tools -->

<svg
   fill="#000"
   height="800px"
   width="800px"
   version="1.1"
   id="Icons"
   viewBox="0 0 32 32"
   xmlns="http://www.w3.org/2000/svg">
==
<g
   id="g2"
   transform="matrix(1.2223155,0,0,1.2020749,-3.6181638,-3.2331984)">
	<path
   d="M 26,9 H 23.4 C 22.2,6 19.3,4 16,4 12.7,4 9.8,6 8.6,9 H 6 C 4.3,9 3,10.3 3,12 v 0.6 C 3,16.1 5.9,19 9.4,19 h 13.3 c 3.5,0 6.4,-2.9 6.4,-6.4 V 12 C 29,10.3 27.7,9 26,9 Z M 16,6 c 2.2,0 4.1,1.2 5.2,3 H 10.8 c 1.1,-1.8 3,-3 5.2,-3 z"
   id="path1" />
	<path
   d="m 23,21 c 0,0 0,0 0,0 v 2 c 0,0.6 -0.4,1 -1,1 -0.6,0 -1,-0.4 -1,-1 V 21 H 11 v 2 c 0,0.6 -0.4,1 -1,1 -0.6,0 -1,-0.4 -1,-1 v -2 c 0,0 0,0 0,0 C 6.6,20.9 4.5,19.8 3,18.1 V 25 c 0,1.7 1.3,3 3,3 h 20 c 1.7,0 3,-1.3 3,-3 v -6.9 c -1.5,1.7 -3.6,2.8 -6,2.9 z"
   id="path2" />
</g>
</svg>
