<?xml version="1.0" encoding="UTF-8" standalone="no"?>
<!-- Uploaded to: SVG Repo, www.svgrepo.com, Generator: SVG Repo Mixer Tools -->

<svg
   width="100px"
   height="100px"
   viewBox="0 0 24 24"
   fill="#72e172"
   version="1.1"
   xmlns="http://www.w3.org/2000/svg">
  <path
     fill-rule="evenodd"
     clip-rule="evenodd"
     d="m 2.791695,11.999975 c 0,-5.2397287 4.2476401,-9.4873688 9.487345,-9.4873688 5.239707,0 9.487369,4.2476401 9.487369,9.4873688 0,5.239706 -4.247662,9.487368 -9.487369,9.487368 -1.866444,0 -3.6037812,-0.537766 -5.0696243,-1.466524 -0.2728009,-0.172781 -0.60708,-0.21899 -0.9165245,-0.126684 l -3.213595,0.959117 1.2099632,-2.831254 C 4.4322731,17.687373 4.4031748,17.304083 4.2112844,16.994907 3.3114689,15.544902 2.791695,13.834832 2.791695,11.999975 Z M 12.27904,0.28028419 c -6.4725829,0 -11.71966704,5.24708411 -11.71966704,11.71969081 0,2.051615 0.52810044,3.982797 1.45617714,5.66195 l -1.92446249,4.502928 c -0.1701275,0.398135 -0.09471743,0.858663 0.19348651,1.18168 0.28820393,0.323128 0.73722438,0.450371 1.15206798,0.326477 l 5.0220772,-1.49867 c 1.7155841,0.983338 3.7037457,1.545325 5.8203207,1.545325 6.472618,0 11.719691,-5.247073 11.719691,-11.71969 0,-6.4726067 -5.247073,-11.71969081 -11.719691,-11.71969081 z M 14.837839,14.435884 13.370981,15.469115 C 12.683983,15.077789 11.924436,14.531539 11.162545,13.769648 10.370517,12.97762 9.7833276,12.159921 9.3503688,11.40986 l 0.9321952,-0.791246 c 0.400032,-0.339536 0.509527,-0.9119817 0.263079,-1.3752443 L 9.3578694,7.0110476 C 9.1979235,6.7104543 8.9095298,6.4993101 8.5746704,6.4376311 8.2397997,6.3759632 7.8951069,6.4705132 7.6385684,6.6944039 L 7.2864085,7.00175 c -0.8468649,0.7391107 -1.3477198,1.9536725 -0.9326084,3.183459 0.4303582,1.274879 1.3487913,3.281401 3.2302928,5.162914 2.0242461,2.024269 4.0804381,2.821432 5.2828781,3.131055 0.968828,0.24935 1.885643,-0.08494 2.531677,-0.611322 l 0.660209,-0.537989 c 0.282389,-0.230041 0.434745,-0.583529 0.40818,-0.94684 -0.02668,-0.36331 -0.228925,-0.690792 -0.541896,-0.877302 l -1.873253,-1.116161 c -0.378379,-0.225353 -0.853863,-0.207271 -1.214049,0.04632 z"/>
</svg>
