<?xml version="1.0" encoding="UTF-8" standalone="no"?>
<!-- Uploaded to: SVG Repo, www.svgrepo.com, Generator: SVG Repo Mixer Tools -->

<svg
   width="50px"
   height="50px"
   viewBox="0 0 512 512"
   version="1.1"
   xmlns="http://www.w3.org/2000/svg">
  <g
     id="g2"
     transform="matrix(1.1320548,0,0,1.0719492,-33.811623,-18.418995)">
    <path
       d="m 344,144 c -3.92,52.87 -44,96 -88,96 -44,0 -84.15,-43.12 -88,-96 -4,-55 35,-96 88,-96 53,0 92,42 88,96 z"
       style="fill:none;fill-opacity:1;stroke:#fff;stroke-width:60;stroke-linecap:round;stroke-linejoin:round;stroke-opacity:1"
       id="path1" />
    <path
       d="M 256,304 C 169,304 80.7,352 64.36,442.6 62.39,453.52 68.57,464 80,464 h 352 c 11.44,0 17.62,-10.48 15.65,-21.4 C 431.3,352 343,304 256,304 Z"
       style="fill:none;fill-opacity:1;stroke:#fff;stroke-width:60;stroke-miterlimit:10;stroke-opacity:1"
       id="path2" />
  </g>
</svg>
