<?xml version="1.0" encoding="UTF-8" standalone="no"?>
<!-- Uploaded to: SVG Repo, www.svgrepo.com, Generator: SVG Repo Mixer Tools -->

<svg
   fill="#fff"
   width="100px"
   height="100px"
   viewBox="0 0 24 24"
   version="1.1"
   xmlns="http://www.w3.org/2000/svg"
   >
  <path
     d="m 11.999985,0.064437 c -6.5909172,0 -11.98348536,5.3805847 -11.98348536,12.007477 0,5.991741 4.38595546,10.964888 10.11406136,11.863649 V 15.547125 H 7.0867556 V 12.071914 H 10.130561 V 9.4235386 c 0,-3.0078547 1.785539,-4.6615756 4.529757,-4.6615756 1.3062,0 2.672318,0.2276863 2.672318,0.2276863 v 2.9599209 h -1.50992 c -1.485951,0 -1.953308,0.9227282 -1.953308,1.8694475 v 2.2528963 h 3.331409 l -0.539257,3.475211 h -2.792152 v 8.388438 c 2.823789,-0.446025 5.395206,-1.8868 7.249888,-4.062402 1.854685,-2.175482 2.870644,-4.942468 2.864174,-7.801247 0,-6.6268923 -5.392568,-12.007477 -11.983485,-12.007477 z"/>
</svg>
