<?xml version="1.0" encoding="UTF-8" standalone="no"?>
<!-- Uploaded to: SVG Repo, www.svgrepo.com, Generator: SVG Repo Mixer Tools -->

<svg
   fill="#000000"
   width="50px"
   height="50px"
   viewBox="-2 -2 24 24"
   xmlns="http://www.w3.org/2000/svg">
  <path
     id="path3"
     mask="none"
     style="fill:#ffc96b;fill-opacity:1;stroke-width:0.0358341"
     d="M 10,-1.968579 A 11.968579,11.968579 0 0 0 -1.968579,10 11.968579,11.968579 0 0 0 10,21.968579 11.968579,11.968579 0 0 0 21.968579,10 11.968579,11.968579 0 0 0 10,-1.968579 Z m 4.466521,5.5122876 c 0.100371,-0.00484 0.188137,0.00483 0.263366,0.029045 0.322556,0.7968206 0.351421,1.5161373 0.08525,2.1566931 0.566437,0.6005212 0.849661,1.326355 0.849661,2.1799992 0,0.5992296 -0.07347,1.1299698 -0.220325,1.5923064 -0.146853,0.4623363 -0.336994,0.8316937 -0.569075,1.1106457 a 3.0026386,2.9574083 0 0 1 -0.870586,0.703874 4.3820168,4.3160082 0 0 1 -1.009652,0.413282 7.3492531,7.2385472 0 0 1 -1.101408,0.189808 c 0.372378,0.316404 0.558576,0.817487 0.558576,1.501952 v 2.527351 c 0,0.120104 0.01835,0.216949 0.05375,0.291853 a 0.29633027,0.2918665 0 0 0 0.171752,0.153694 c 0.07867,0.02711 0.14951,0.04519 0.209826,0.05165 0.06164,0.0078 0.148172,0.01159 0.262246,0.01159 H 10.572085 7.6520288 c 0.1565958,-3.4e-5 0.2755823,-0.0053 0.3540014,-0.01547 a 0.41564911,0.40938796 0 0 0 0.2360709,-0.138193 c 0.078671,-0.08136 0.1180004,-0.198818 0.1180004,-0.353791 l -0.00524,-0.719341 c -0.00393,-0.458462 -0.00524,-0.822672 -0.00524,-1.09 l -0.2464992,0.04262 a 3.1599821,3.1123816 0 0 1 -0.596592,0.03619 4.5865632,4.5174734 0 0 1 -0.7474064,-0.07363 1.6730859,1.6478834 0 0 1 -0.718501,-0.317678 1.3636438,1.3431024 0 0 1 -0.472072,-0.649632 L 5.4610413,12.934475 A 2.6827069,2.6422958 0 0 0 5.1227173,12.395914 1.2967727,1.2772389 0 0 0 4.6546348,11.992991 l -0.074747,-0.05165 A 0.78933992,0.77744971 0 0 1 4.4408902,11.81221 0.59659413,0.58760733 0 0 1 4.3438863,11.664955 c -0.020979,-0.04907 -0.00388,-0.09043 0.052491,-0.12143 a 0.69886743,0.68834002 0 0 1 0.3120083,-0.04773 l 0.2150744,0.03226 c 0.1442317,0.02711 0.3212297,0.112375 0.532332,0.253148 0.209791,0.142059 0.3842094,0.324106 0.5205738,0.55011 0.1652106,0.289283 0.3631885,0.510151 0.5965812,0.66125 a 1.2639928,1.2449526 0 0 0 0.7027538,0.227252 c 0.2360151,0 0.4405622,-0.01678 0.6123286,-0.05165 a 2.1372494,2.1050548 0 0 0 0.48383,-0.160133 c 0.064249,-0.471378 0.2386527,-0.835547 0.5244932,-1.08867 A 7.355809,7.2450048 0 0 1 7.7962749,11.728224 4.3872616,4.3211738 0 0 1 6.786622,11.314942 2.8898758,2.8463441 0 0 1 5.9212852,10.60729 C 5.6931373,10.324463 5.5056236,9.9551062 5.3574585,9.4966434 A 5.3627912,5.2820086 0 0 1 5.1384647,7.9094462 c 0,-0.8523528 0.283205,-1.5794399 0.8483297,-2.1786695 C 5.7219332,5.0889294 5.7468557,4.3695745 6.061542,3.5727539 6.270022,3.5081821 6.5781675,3.5559836 6.985949,3.7148304 7.3937304,3.8736776 7.6939684,4.009286 7.8827806,4.1229328 8.0729038,4.2352881 8.2237203,4.3295295 8.339105,4.4070159 a 7.623293,7.5084595 0 0 1 2.062489,-0.2737948 c 0.708045,0 1.396471,0.090448 2.062559,0.2751245 l 0.406422,-0.2544078 c 0.280594,-0.167888 0.609721,-0.3241658 0.988656,-0.4649331 0.237654,-0.088786 0.439997,-0.1372244 0.60729,-0.1452961 z" />
</svg>
