<?xml version="1.0" encoding="UTF-8" standalone="no"?>
<!-- Uploaded to: SVG Repo, www.svgrepo.com, Generator: SVG Repo Mixer Tools -->

<svg
   version="1.1"
   id="Icons"
   viewBox="0 0 32 32"
   xml:space="preserve"
   sodipodi:docname="portfolio.svg"
   inkscape:version="1.3.2 (091e20e, 2023-11-25, custom)"
   xmlns:inkscape="http://www.inkscape.org/namespaces/inkscape"
   xmlns:sodipodi="http://sodipodi.sourceforge.net/DTD/sodipodi-0.dtd"
   xmlns="http://www.w3.org/2000/svg"
   xmlns:svg="http://www.w3.org/2000/svg">
<style
   type="text/css"
   id="style1">
	.st0{fill:none;stroke:#fff;stroke-width:4;stroke-linecap:round;stroke-linejoin:round;stroke-miterlimit:10;}
	.st1{fill:none;stroke:#fff;stroke-width:4;stroke-linecap:round;stroke-linejoin:round;}
	.st2{fill:none;stroke:#fff;stroke-width:4;stroke-linecap:round;stroke-linejoin:round;stroke-dasharray:5.2066,0;}
</style>




<path
   class="st0"
   d="M 28.270199,28.879855 H 3.729801 c -1.3497219,0 -2.4540398,-1.053806 -2.4540398,-2.341792 V 11.316416 c 0,-1.287985 1.1043179,-2.3417914 2.4540398,-2.3417914 h 24.540398 c 1.349722,0 2.45404,1.0538064 2.45404,2.3417914 v 15.221647 c 0,1.287986 -1.104318,2.341792 -2.45404,2.341792 z"
   id="path1" /><path
   class="st0"
   d="M 24.098331,18.341792 H 7.9016687 c -3.6810597,0 -6.6259075,-2.81015 -6.6259075,-6.322838 v -0.702538 c 0,-1.287985 1.1043179,-2.3417914 2.4540398,-2.3417914 h 24.540398 c 1.349722,0 2.45404,1.0538064 2.45404,2.3417914 v 0.702538 c 0,3.512688 -2.944848,6.322838 -6.625908,6.322838 z"
   id="path2" /><line
   class="st0"
   x1="8.6378803"
   y1="20.683584"
   x2="8.6378803"
   y2="18.341791"
   id="line2" /><line
   class="st0"
   x1="23.36212"
   y1="20.683584"
   x2="23.36212"
   y2="18.341791"
   id="line3" /><path
   class="st0"
   d="M 7.7789667,8.9746246 C 8.8832846,5.5790265 12.073536,3.1201451 16,3.1201451 c 3.926464,0 7.116715,2.4588814 8.221033,5.8544795"
   id="path3" />
</svg>
